# Blender v2.78 (sub 4) OBJ File: 'cube_tri_color.blend'
# www.blender.org
mtllib cube_tri_color.mtl
o Cube
v -0.500000 -0.500000 0.500000
v -0.500000 0.500000 0.500000
v -0.500000 -0.500000 -0.500000
v -0.500000 0.500000 -0.500000
v 0.500000 -0.500000 0.500000
v 0.500000 0.500000 0.500000
v 0.500000 -0.500000 -0.500000
v 0.500000 0.500000 -0.500000
vn 0.0000 0.0000 1.0000
vn 1.0000 0.0000 0.0000
vn 0.0000 1.0000 0.0000
vn 0.0000 0.0000 -1.0000
vn -1.0000 0.0000 0.0000
vn 0.0000 -1.0000 0.0000
usemtl Mat_red
s off
f 2//1 5//1 6//1
f 2//1 1//1 5//1
usemtl Mat_green
f 6//2 5//2 7//2
f 6//2 7//2 8//2
usemtl Mat_yellow
f 2//3 8//3 4//3
f 2//3 6//3 8//3
usemtl Mat_blue
f 8//4 7//4 3//4
f 8//4 3//4 4//4
usemtl Mat_purple
f 4//5 1//5 2//5
f 4//5 3//5 1//5
usemtl Mat_cyan
f 5//6 3//6 7//6
f 5//6 1//6 3//6
